<?xml version="1.0" standalone="no"?>
<!DOCTYPE svg PUBLIC "-//W3C//DTD SVG 20010904//EN"
 "http://www.w3.org/TR/2001/REC-SVG-20010904/DTD/svg10.dtd">
<svg version="1.0" xmlns="http://www.w3.org/2000/svg"
 width="600.000000pt" height="600.000000pt" viewBox="0 0 600.000000 600.000000"
 preserveAspectRatio="xMidYMid meet">
<metadata>
Created by potrace 1.11, written by Peter Selinger 2001-2013
</metadata>
<g transform="translate(0.000000,600.000000) scale(0.100000,-0.100000)"
fill="#000000" stroke="none">
<path d="M2845 5833 c-284 -34 -521 -118 -724 -256 -104 -70 -284 -253 -353
-357 -102 -155 -184 -337 -229 -513 -53 -207 -61 -281 -66 -672 -4 -263 -8
-372 -17 -377 -6 -4 -29 -8 -51 -8 -102 0 -259 -65 -357 -147 -111 -93 -193
-229 -223 -369 -23 -107 -22 -2341 1 -2451 47 -230 211 -414 438 -491 l81 -27
1655 0 1655 0 81 27 c227 77 391 261 438 491 23 110 24 2344 1 2451 -41 193
-174 365 -350 451 -151 74 -48 69 -1449 73 l-1259 3 6 317 c4 259 9 338 25
432 72 402 264 650 574 741 111 33 377 38 511 11 152 -32 251 -84 356 -191 48
-47 103 -115 124 -151 113 -196 167 -461 167 -821 l0 -129 325 0 325 0 0 203
c0 307 -30 519 -106 747 -82 246 -197 435 -368 606 -235 233 -513 363 -871
404 -85 9 -274 11 -340 3z m-35 -3383 c101 -176 187 -320 190 -320 3 0 86 139
184 309 98 170 182 314 186 321 6 9 34 -3 106 -44 55 -31 105 -60 113 -65 10
-6 -29 -82 -173 -331 -102 -177 -186 -324 -186 -326 0 -2 169 -4 375 -4 l375
0 0 -130 0 -130 -375 0 c-206 0 -375 -2 -375 -4 0 -2 84 -149 186 -326 144
-249 183 -325 173 -331 -8 -5 -58 -34 -113 -65 -72 -41 -100 -53 -106 -44 -4
7 -88 151 -186 321 -98 170 -181 309 -184 309 -3 0 -86 -139 -184 -309 -98
-170 -182 -314 -186 -321 -6 -9 -34 3 -106 44 -55 31 -105 60 -113 65 -10 6
29 82 173 331 102 177 186 324 186 326 0 2 -169 4 -375 4 l-375 0 0 130 0 130
375 0 c206 0 375 2 375 4 0 2 -84 149 -186 326 -102 177 -184 323 -182 325 6
6 213 125 218 125 3 0 88 -144 190 -320z"/>
</g>
</svg>
